<?xml version="1.0" encoding="UTF-8" standalone="no"?>
<!-- Created with Inkscape (http://www.inkscape.org/) -->

<svg
   xmlns:dc="http://purl.org/dc/elements/1.1/"
   xmlns:cc="http://creativecommons.org/ns#"
   xmlns:rdf="http://www.w3.org/1999/02/22-rdf-syntax-ns#"
   xmlns:svg="http://www.w3.org/2000/svg"
   xmlns="http://www.w3.org/2000/svg"
   xmlns:xlink="http://www.w3.org/1999/xlink"
   version="1.1"
   width="48"
   height="48"
   id="svg2">
  <metadata
     id="metadata8">
    <rdf:RDF>
      <cc:Work
         rdf:about="">
        <dc:format>image/svg+xml</dc:format>
        <dc:type
           rdf:resource="http://purl.org/dc/dcmitype/StillImage" />
        <dc:title></dc:title>
      </cc:Work>
    </rdf:RDF>
  </metadata>
  <defs
     id="defs6">
    <linearGradient
       id="linearGradient3103">
      <stop
         id="stop3105"
         style="stop-color:#8b0000;stop-opacity:1"
         offset="0" />
      <stop
         id="stop3107"
         style="stop-color:#ff2626;stop-opacity:1"
         offset="1" />
    </linearGradient>
    <linearGradient
       x1="31.196802"
       y1="6.2071066"
       x2="68.0718"
       y2="40.957108"
       id="linearGradient3109"
       xlink:href="#linearGradient3103"
       gradientUnits="userSpaceOnUse" />
  </defs>
  <text
     x="1.0606601"
     y="35.095303"
     id="text3006"
     xml:space="preserve"
     style="font-size:40px;font-style:normal;font-weight:normal;line-height:125%;letter-spacing:0px;word-spacing:0px;fill:#000000;fill-opacity:1;stroke:none;font-family:Sans"><tspan
       x="1.0606601"
       y="35.095303"
       id="tspan3008"
       style="font-size:40px;font-style:normal;font-variant:normal;font-weight:bold;font-stretch:normal;text-align:start;line-height:125%;writing-mode:lr-tb;text-anchor:start;font-family:TeXGyreCursor;-inkscape-font-specification:TeXGyreCursor Bold" /></text>
  <g
     transform="translate(-27.446803,-0.08210678)"
     id="text3010"
     style="font-size:40px;font-style:italic;font-weight:normal;line-height:125%;letter-spacing:0px;word-spacing:0px;fill:#000000;fill-opacity:1;stroke:none;font-family:Sans;-inkscape-font-specification:Sans Italic">
    <path
       d="m 38.446803,4.0821068 -7.53125,26.4375002 3.78125,-3.84375 -4.65625,17.40625 17.875,0 1.6875,0 19.84375,0 1.40625,-5 -17.40625,0 5,-13 10,0 1.21875,-5 -10.21875,0 1.09375,-3.9375 -4.125,3.75 4.03125,-11.8125 12.59375,0 1.40625,-5.0000002 z m 4,5.0000002 12,0 -3,12 -10,0 1.25,-3.9375 -4.125,3.75 z m -2,17 10,0 -1.6875,4.4375 3.78125,-3.84375 -3.09375,12.40625 -14,0 z"
       id="path3021"
       style="fill:url(#linearGradient3109);fill-opacity:1;stroke:none" />
  </g>
</svg>
