<?xml version="1.0" encoding="UTF-8" standalone="no"?>
<!-- Created with Inkscape (http://www.inkscape.org/) -->

<svg
   xmlns:dc="http://purl.org/dc/elements/1.1/"
   xmlns:cc="http://creativecommons.org/ns#"
   xmlns:rdf="http://www.w3.org/1999/02/22-rdf-syntax-ns#"
   xmlns:svg="http://www.w3.org/2000/svg"
   xmlns="http://www.w3.org/2000/svg"
   xmlns:xlink="http://www.w3.org/1999/xlink"
   xmlns:sodipodi="http://sodipodi.sourceforge.net/DTD/sodipodi-0.dtd"
   xmlns:inkscape="http://www.inkscape.org/namespaces/inkscape"
   version="1.1"
   width="48"
   height="48"
   id="svg2"
   inkscape:version="0.48.4 r9939"
   sodipodi:docname="ieee-converter-48.svg">
  <sodipodi:namedview
     pagecolor="#ffffff"
     bordercolor="#666666"
     borderopacity="1"
     objecttolerance="10"
     gridtolerance="10"
     guidetolerance="10"
     inkscape:pageopacity="0"
     inkscape:pageshadow="2"
     inkscape:window-width="1450"
     inkscape:window-height="874"
     id="namedview28"
     showgrid="false"
     inkscape:zoom="8"
     inkscape:cx="17.198459"
     inkscape:cy="33.46213"
     inkscape:window-x="150"
     inkscape:window-y="0"
     inkscape:window-maximized="1"
     inkscape:current-layer="svg2"
     showguides="true"
     inkscape:guide-bbox="true"
     inkscape:object-nodes="true">
    <inkscape:grid
       type="xygrid"
       id="grid2996" />
  </sodipodi:namedview>
  <metadata
     id="metadata8">
    <rdf:RDF>
      <cc:Work
         rdf:about="">
        <dc:format>image/svg+xml</dc:format>
        <dc:type
           rdf:resource="http://purl.org/dc/dcmitype/StillImage" />
        <dc:title></dc:title>
      </cc:Work>
    </rdf:RDF>
  </metadata>
  <defs
     id="defs6">
    <linearGradient
       id="linearGradient3091">
      <stop
         style="stop-color:#f79a9a;stop-opacity:1;"
         offset="0"
         id="stop3093" />
      <stop
         style="stop-color:#f14444;stop-opacity:1;"
         offset="1"
         id="stop3095" />
    </linearGradient>
    <linearGradient
       id="linearGradient3081">
      <stop
         style="stop-color:#729fcf;stop-opacity:1;"
         offset="0"
         id="stop3083" />
      <stop
         style="stop-color:#4380bf;stop-opacity:1;"
         offset="1"
         id="stop3085" />
    </linearGradient>
    <linearGradient
       inkscape:collect="always"
       id="linearGradient3067">
      <stop
         style="stop-color:#eeeeec;stop-opacity:1;"
         offset="0"
         id="stop3069" />
      <stop
         style="stop-color:#eeeeec;stop-opacity:0;"
         offset="1"
         id="stop3071" />
    </linearGradient>
    <linearGradient
       id="linearGradient3034">
      <stop
         style="stop-color:#ffffff;stop-opacity:0.68613136;"
         offset="0"
         id="stop3036" />
      <stop
         style="stop-color:#ffffff;stop-opacity:0;"
         offset="1"
         id="stop3038" />
    </linearGradient>
    <linearGradient
       id="linearGradient4223">
      <stop
         id="stop4225"
         style="stop-color:#5789ca;stop-opacity:1"
         offset="0" />
      <stop
         id="stop4227"
         style="stop-color:#2c568c;stop-opacity:1"
         offset="1" />
    </linearGradient>
    <linearGradient
       id="linearGradient4565">
      <stop
         id="stop4567"
         style="stop-color:#3a3a3a;stop-opacity:1"
         offset="0" />
      <stop
         id="stop4569"
         style="stop-color:#000000;stop-opacity:0"
         offset="1" />
    </linearGradient>
    <radialGradient
       cx="24.714285"
       cy="38.57143"
       r="19.714285"
       fx="24.714285"
       fy="38.57143"
       id="radialGradient3291"
       xlink:href="#linearGradient4565"
       gradientUnits="userSpaceOnUse"
       gradientTransform="matrix(0.36661808,0,0,0.13564065,14.894292,31.356654)" />
    <radialGradient
       cx="12.25"
       cy="4.309896"
       r="22"
       fx="12.25"
       fy="4.309896"
       id="radialGradient4229"
       xlink:href="#linearGradient4223"
       gradientUnits="userSpaceOnUse"
       gradientTransform="matrix(1.1875,1.4431818,-0.69611024,0.57277851,0.70328751,-13.897593)" />
    <linearGradient
       inkscape:collect="always"
       xlink:href="#linearGradient3034"
       id="linearGradient3040"
       x1="24.4375"
       y1="30.6875"
       x2="24.4375"
       y2="37"
       gradientUnits="userSpaceOnUse"
       gradientTransform="translate(-1,-0.9999996)" />
    <linearGradient
       inkscape:collect="always"
       xlink:href="#linearGradient3034"
       id="linearGradient3044"
       gradientUnits="userSpaceOnUse"
       x1="24.4375"
       y1="30.6875"
       x2="24.4375"
       y2="37"
       gradientTransform="translate(-1,-23)" />
    <linearGradient
       inkscape:collect="always"
       xlink:href="#linearGradient3034"
       id="linearGradient3027"
       gradientUnits="userSpaceOnUse"
       gradientTransform="translate(-1,-12)"
       x1="24.4375"
       y1="30.6875"
       x2="24.4375"
       y2="37" />
    <radialGradient
       inkscape:collect="always"
       xlink:href="#linearGradient3067"
       id="radialGradient3073"
       cx="11"
       cy="40"
       fx="11"
       fy="40"
       r="6.5"
       gradientTransform="matrix(0.46153847,4.7692312e-8,-3.8779563e-7,0.92307692,5.9230923,3.0769225)"
       gradientUnits="userSpaceOnUse" />
    <linearGradient
       inkscape:collect="always"
       xlink:href="#linearGradient3081"
       id="linearGradient3089"
       x1="2.1213202"
       y1="35.537243"
       x2="47.376156"
       y2="45.613514"
       gradientUnits="userSpaceOnUse" />
    <radialGradient
       inkscape:collect="always"
       xlink:href="#linearGradient3091"
       id="radialGradient3097"
       cx="24.6875"
       cy="27.8125"
       fx="24.6875"
       fy="27.8125"
       r="7"
       gradientUnits="userSpaceOnUse"
       gradientTransform="matrix(1.0178572,0,1.4956799e-6,1,-0.4408901,5.3124438e-8)" />
    <clipPath
       clipPathUnits="userSpaceOnUse"
       id="clipPath3101">
      <path
         style="fill:none;stroke:#000000;stroke-width:1px;stroke-linecap:butt;stroke-linejoin:miter;stroke-opacity:1"
         d="m 18.522727,37.551136 c 5.170455,-2.215909 17.505682,-2.806818 17.875,-2.806818 0.369318,0 5.170455,-12.335227 5.170455,-12.335227 L 19.852273,15.613636 c 0,0 -5.244318,5.46591 -5.539773,6.869319 -0.295455,1.403409 4.210227,15.068181 4.210227,15.068181 z"
         id="path3103"
         inkscape:connector-curvature="0" />
    </clipPath>
    <clipPath
       clipPathUnits="userSpaceOnUse"
       id="clipPath3105">
      <path
         style="fill:none;stroke:#000000;stroke-width:1px;stroke-linecap:butt;stroke-linejoin:miter;stroke-opacity:1"
         d="m 19.75,36.3125 c 4.375,-1.875 14.8125,-2.375 15.125,-2.375 0.3125,0 4.375,-10.4375 4.375,-10.4375 L 20.875,17.75 c 0,0 -4.4375,4.625 -4.6875,5.8125 -0.25,1.1875 3.5625,12.75 3.5625,12.75 z"
         id="path3107"
         inkscape:connector-curvature="0" />
    </clipPath>
  </defs>
  <path
     style="fill:url(#linearGradient3089);stroke:#3465a4;stroke-width:1px;stroke-linecap:butt;stroke-linejoin:miter;stroke-opacity:1;fill-opacity:1"
     d="m -1,33 c 4.7153724,-2.829223 15.786474,0.60129 25,0 10.325813,-0.67388 20.303769,-5.004037 24.5,-1 0.08326,5.83534 0,16 0,16 l -49,0 z"
     id="path3059"
     inkscape:connector-curvature="0"
     sodipodi:nodetypes="cscccc" />
  <path
     d="m 31.182609,36.588512 a 7.227614,2.6740617 0 0 1 -14.455227,0 7.227614,2.6740617 0 1 1 14.455227,0 z"
     id="path4563"
     style="opacity:0.25;color:#000000;fill:url(#radialGradient3291);fill-opacity:1;fill-rule:evenodd;stroke:none;stroke-width:0.40487173;marker:none;visibility:visible;display:inline;overflow:visible"
     inkscape:connector-curvature="0" />
  <text
     x="1.0606601"
     y="35.095303"
     id="text3006"
     xml:space="preserve"
     style="font-size:40px;font-style:normal;font-weight:normal;line-height:125%;letter-spacing:0px;word-spacing:0px;fill:#000000;fill-opacity:1;stroke:none;font-family:Sans"><tspan
       x="1.0606601"
       y="35.095303"
       id="tspan3008"
       style="font-size:40px;font-style:normal;font-variant:normal;font-weight:bold;font-stretch:normal;text-align:start;line-height:125%;writing-mode:lr-tb;text-anchor:start;font-family:TeXGyreCursor;-inkscape-font-specification:TeXGyreCursor Bold" /></text>
  <path
     style="fill:#cc0000;stroke:none"
     d="m 8,3 0,13 2,0 0,-13 z"
     id="path3049"
     inkscape:connector-curvature="0" />
  <path
     style="fill:#cc0000;stroke:none"
     d="m 12,4 0,12 8,0 0,-2 -6,0 0,-4 5,0 0,-2 -5,0 0,-3 6,0 0,-2 -8,0 z"
     id="path3051"
     inkscape:connector-curvature="0"
     sodipodi:nodetypes="cccccccccccccc" />
  <path
     sodipodi:nodetypes="cccccccccccccc"
     inkscape:connector-curvature="0"
     id="path3053"
     d="m 22,4 0,12 8,0 0,-2 -6,0 0,-4 5,0 0,-2 -5,0 0,-3 6,0 0,-2 -8,0 z"
     style="fill:#cc0000;stroke:none" />
  <path
     style="fill:#cc0000;stroke:none"
     d="m 32,4 0,12 8,0 0,-2 -6,0 0,-4 5,0 0,-2 -5,0 0,-3 6,0 0,-2 -8,0 z"
     id="path3055"
     inkscape:connector-curvature="0"
     sodipodi:nodetypes="cccccccccccccc" />
  <path
     sodipodi:nodetypes="csc"
     inkscape:connector-curvature="0"
     id="path3079"
     d="M -0.79549513,33.955806 C 3.9198773,31.126583 14.786474,34.60129 24,34 34.325813,33.32612 44.701517,28.774992 48.588388,33.265165"
     style="opacity:0.5;fill:none;stroke:#888a85;stroke-width:1px;stroke-linecap:butt;stroke-linejoin:miter;stroke-opacity:1" />
  <path
     sodipodi:type="arc"
     style="fill:url(#radialGradient3097);stroke:#a40000;fill-opacity:1"
     id="path3061"
     sodipodi:cx="26.5"
     sodipodi:cy="29.5"
     sodipodi:rx="6.5"
     sodipodi:ry="6.5"
     d="m 33,29.5 a 6.5,6.5 0 1 1 -13,0 6.5,6.5 0 1 1 13,0 z"
     transform="translate(-2.5,0.5)"
     clip-path="url(#clipPath3105)" />
  <path
     transform="matrix(0.84615385,0,0,0.84615385,1.576923,5.0384614)"
     d="m 33,29.5 a 6.5,6.5 0 1 1 -13,0 6.5,6.5 0 1 1 13,0 z"
     sodipodi:ry="6.5"
     sodipodi:rx="6.5"
     sodipodi:cy="29.5"
     sodipodi:cx="26.5"
     id="path3063"
     style="fill:none;stroke:#eeeeec;stroke-width:1.18181812999999991;opacity:0.5"
     sodipodi:type="arc"
     clip-path="url(#clipPath3101)" />
</svg>
