<?xml version="1.0" encoding="UTF-8" standalone="no"?>
<!-- Created with Inkscape (http://www.inkscape.org/) -->

<svg
   xmlns:dc="http://purl.org/dc/elements/1.1/"
   xmlns:cc="http://creativecommons.org/ns#"
   xmlns:rdf="http://www.w3.org/1999/02/22-rdf-syntax-ns#"
   xmlns:svg="http://www.w3.org/2000/svg"
   xmlns="http://www.w3.org/2000/svg"
   xmlns:xlink="http://www.w3.org/1999/xlink"
   xmlns:sodipodi="http://sodipodi.sourceforge.net/DTD/sodipodi-0.dtd"
   xmlns:inkscape="http://www.inkscape.org/namespaces/inkscape"
   version="1.1"
   width="48"
   height="48"
   id="svg2"
   inkscape:version="0.48.4 r9939"
   sodipodi:docname="tool-base64-48.svg">
  <sodipodi:namedview
     pagecolor="#ffffff"
     bordercolor="#666666"
     borderopacity="1"
     objecttolerance="10"
     gridtolerance="10"
     guidetolerance="10"
     inkscape:pageopacity="0"
     inkscape:pageshadow="2"
     inkscape:window-width="1450"
     inkscape:window-height="874"
     id="namedview28"
     showgrid="true"
     inkscape:zoom="16"
     inkscape:cx="10.272004"
     inkscape:cy="6.2106928"
     inkscape:window-x="150"
     inkscape:window-y="0"
     inkscape:window-maximized="1"
     inkscape:current-layer="svg2"
     showguides="true"
     inkscape:guide-bbox="true"
     inkscape:object-nodes="true">
    <inkscape:grid
       type="xygrid"
       id="grid2996" />
  </sodipodi:namedview>
  <metadata
     id="metadata8">
    <rdf:RDF>
      <cc:Work
         rdf:about="">
        <dc:format>image/svg+xml</dc:format>
        <dc:type
           rdf:resource="http://purl.org/dc/dcmitype/StillImage" />
        <dc:title></dc:title>
      </cc:Work>
    </rdf:RDF>
  </metadata>
  <defs
     id="defs6">
    <linearGradient
       id="linearGradient3043">
      <stop
         style="stop-color:#4ac0e4;stop-opacity:1;"
         offset="0"
         id="stop3045" />
      <stop
         style="stop-color:#f6c2c2;stop-opacity:0.57236844;"
         offset="1"
         id="stop3047" />
    </linearGradient>
    <linearGradient
       id="linearGradient3091">
      <stop
         style="stop-color:#f79a9a;stop-opacity:1;"
         offset="0"
         id="stop3093" />
      <stop
         style="stop-color:#f14444;stop-opacity:1;"
         offset="1"
         id="stop3095" />
    </linearGradient>
    <linearGradient
       id="linearGradient3081">
      <stop
         style="stop-color:#729fcf;stop-opacity:1;"
         offset="0"
         id="stop3083" />
      <stop
         style="stop-color:#4380bf;stop-opacity:1;"
         offset="1"
         id="stop3085" />
    </linearGradient>
    <linearGradient
       inkscape:collect="always"
       id="linearGradient3067">
      <stop
         style="stop-color:#eeeeec;stop-opacity:1;"
         offset="0"
         id="stop3069" />
      <stop
         style="stop-color:#eeeeec;stop-opacity:0;"
         offset="1"
         id="stop3071" />
    </linearGradient>
    <linearGradient
       id="linearGradient3034">
      <stop
         style="stop-color:#ffffff;stop-opacity:0.68613136;"
         offset="0"
         id="stop3036" />
      <stop
         style="stop-color:#ffffff;stop-opacity:0;"
         offset="1"
         id="stop3038" />
    </linearGradient>
    <linearGradient
       id="linearGradient4223">
      <stop
         id="stop4225"
         style="stop-color:#5789ca;stop-opacity:1"
         offset="0" />
      <stop
         id="stop4227"
         style="stop-color:#2c568c;stop-opacity:1"
         offset="1" />
    </linearGradient>
    <linearGradient
       id="linearGradient4565">
      <stop
         id="stop4567"
         style="stop-color:#3a3a3a;stop-opacity:1"
         offset="0" />
      <stop
         id="stop4569"
         style="stop-color:#000000;stop-opacity:0"
         offset="1" />
    </linearGradient>
    <radialGradient
       cx="24.714285"
       cy="38.57143"
       r="19.714285"
       fx="24.714285"
       fy="38.57143"
       id="radialGradient3291"
       xlink:href="#linearGradient4565"
       gradientUnits="userSpaceOnUse"
       gradientTransform="matrix(0.36661808,0,0,0.13564065,64.144292,-13.518346)" />
    <radialGradient
       cx="12.25"
       cy="4.309896"
       r="22"
       fx="12.25"
       fy="4.309896"
       id="radialGradient4229"
       xlink:href="#linearGradient4223"
       gradientUnits="userSpaceOnUse"
       gradientTransform="matrix(1.1875,1.4431818,-0.69611024,0.57277851,0.70328751,-13.897593)" />
    <linearGradient
       inkscape:collect="always"
       xlink:href="#linearGradient3034"
       id="linearGradient3040"
       x1="24.4375"
       y1="30.6875"
       x2="24.4375"
       y2="37"
       gradientUnits="userSpaceOnUse"
       gradientTransform="translate(-1,-0.9999996)" />
    <linearGradient
       inkscape:collect="always"
       xlink:href="#linearGradient3034"
       id="linearGradient3044"
       gradientUnits="userSpaceOnUse"
       x1="24.4375"
       y1="30.6875"
       x2="24.4375"
       y2="37"
       gradientTransform="translate(-1,-23)" />
    <linearGradient
       inkscape:collect="always"
       xlink:href="#linearGradient3034"
       id="linearGradient3027"
       gradientUnits="userSpaceOnUse"
       gradientTransform="translate(-1,-12)"
       x1="24.4375"
       y1="30.6875"
       x2="24.4375"
       y2="37" />
    <radialGradient
       inkscape:collect="always"
       xlink:href="#linearGradient3067"
       id="radialGradient3073"
       cx="11"
       cy="40"
       fx="11"
       fy="40"
       r="6.5"
       gradientTransform="matrix(0.46153847,4.7692312e-8,-3.8779563e-7,0.92307692,5.9230923,3.0769225)"
       gradientUnits="userSpaceOnUse" />
    <radialGradient
       inkscape:collect="always"
       xlink:href="#linearGradient3091"
       id="radialGradient3097"
       cx="24.6875"
       cy="27.8125"
       fx="24.6875"
       fy="27.8125"
       r="7"
       gradientUnits="userSpaceOnUse"
       gradientTransform="matrix(1.0178572,0,1.4956799e-6,1,-0.4408901,5.3124438e-8)" />
    <clipPath
       clipPathUnits="userSpaceOnUse"
       id="clipPath3101">
      <path
         style="fill:none;stroke:#000000;stroke-width:1px;stroke-linecap:butt;stroke-linejoin:miter;stroke-opacity:1"
         d="m 18.522727,37.551136 c 5.170455,-2.215909 17.505682,-2.806818 17.875,-2.806818 0.369318,0 5.170455,-12.335227 5.170455,-12.335227 L 19.852273,15.613636 c 0,0 -5.244318,5.46591 -5.539773,6.869319 -0.295455,1.403409 4.210227,15.068181 4.210227,15.068181 z"
         id="path3103"
         inkscape:connector-curvature="0" />
    </clipPath>
    <clipPath
       clipPathUnits="userSpaceOnUse"
       id="clipPath3105">
      <path
         style="fill:none;stroke:#000000;stroke-width:1px;stroke-linecap:butt;stroke-linejoin:miter;stroke-opacity:1"
         d="m 19.75,36.3125 c 4.375,-1.875 14.8125,-2.375 15.125,-2.375 0.3125,0 4.375,-10.4375 4.375,-10.4375 L 20.875,17.75 c 0,0 -4.4375,4.625 -4.6875,5.8125 -0.25,1.1875 3.5625,12.75 3.5625,12.75 z"
         id="path3107"
         inkscape:connector-curvature="0" />
    </clipPath>
  </defs>
  <text
     x="1.0606601"
     y="35.095303"
     id="text3006"
     xml:space="preserve"
     style="font-size:40px;font-style:normal;font-weight:normal;line-height:125%;letter-spacing:0px;word-spacing:0px;fill:#000000;fill-opacity:1;stroke:none;font-family:Sans"
     sodipodi:linespacing="125%"><tspan
       x="1.0606601"
       y="35.095303"
       id="tspan3008"
       style="font-size:40px;font-style:normal;font-variant:normal;font-weight:bold;font-stretch:normal;text-align:start;line-height:125%;writing-mode:lr-tb;text-anchor:start;font-family:TeXGyreCursor;-inkscape-font-specification:TeXGyreCursor Bold" /></text>
  <path
     style="fill:none;stroke:#4e9a06;stroke-width:2;stroke-linecap:butt;stroke-linejoin:miter;stroke-opacity:1"
     d="m 17,18 0,-10 1,-1 5,0 1,1 0,10"
     id="path3917"
     inkscape:connector-curvature="0"
     sodipodi:nodetypes="cccccc" />
  <path
     style="fill:none;stroke:#4e9a06;stroke-width:2;stroke-linecap:butt;stroke-linejoin:miter;stroke-opacity:1"
     d="m 16.5,12 8,0"
     id="path3919"
     inkscape:connector-curvature="0" />
  <path
     style="fill:none;stroke:#4e9a06;stroke-width:2;stroke-linecap:butt;stroke-linejoin:miter;stroke-opacity:1"
     d="m 27,14 0,2 1,1 4,0 1,-1 0,-3 -1,-1 -5,0 0,-4 1,-1 4,0 1,1 0,2"
     id="path3921"
     inkscape:connector-curvature="0"
     sodipodi:nodetypes="ccccccccccccc" />
  <path
     style="fill:none;stroke:#4e9a06;stroke-width:2;stroke-linecap:butt;stroke-linejoin:miter;stroke-opacity:1"
     d="m 43,7 -6,0 -1,1 0,8 1,1 6,0"
     id="path3923"
     inkscape:connector-curvature="0"
     sodipodi:nodetypes="cccccc" />
  <path
     style="fill:none;stroke:#4e9a06;stroke-width:2;stroke-linecap:butt;stroke-linejoin:miter;stroke-opacity:1"
     d="m 7,17 0,-9 0,-1 6,0 1,1 0,3 -1,1 1,1 0,3 -1,1 -6,0"
     id="path3917-4"
     inkscape:connector-curvature="0"
     sodipodi:nodetypes="ccccccccccc" />
  <path
     style="fill:none;stroke:#4e9a06;stroke-width:2;stroke-linecap:butt;stroke-linejoin:miter;stroke-opacity:1"
     d="M 6.5,12 13,12"
     id="path3919-8"
     inkscape:connector-curvature="0"
     sodipodi:nodetypes="cc" />
  <path
     inkscape:connector-curvature="0"
     id="path3104"
     d="m 36,12 7,0"
     style="fill:none;stroke:#4e9a06;stroke-width:2;stroke-linecap:butt;stroke-linejoin:miter;stroke-opacity:1"
     sodipodi:nodetypes="cc" />
  <path
     sodipodi:nodetypes="ccccccccccccc"
     inkscape:connector-curvature="0"
     id="path3106"
     d="m 7,27 0,4 1,1 4,0 1,-1 0,-3 -1,-1 -5,0 0,-4 1,-1 4,0 1,1 0,2"
     style="fill:none;stroke:#a40000;stroke-width:2;stroke-linecap:butt;stroke-linejoin:miter;stroke-opacity:1" />
  <path
     style="fill:none;stroke:#a40000;stroke-width:2;stroke-linecap:butt;stroke-linejoin:miter;stroke-opacity:1"
     d="m 22,33 0,-2.40625 0,-1.5 L 22,27 l -6,0 0,-6"
     id="path3108"
     inkscape:connector-curvature="0"
     sodipodi:nodetypes="cccccc" />
  <path
     sodipodi:nodetypes="cc"
     style="fill:none;stroke:#a40000;stroke-width:2;stroke-linecap:butt;stroke-linejoin:miter;stroke-opacity:1"
     d="m 22,21 0,8"
     id="path3112"
     inkscape:connector-curvature="0" />
  <path
     inkscape:connector-curvature="0"
     id="path3114"
     d="m 25,25 8,0"
     style="fill:none;stroke:#babdb6;stroke-width:2;stroke-linecap:butt;stroke-linejoin:miter;stroke-opacity:1" />
  <path
     style="fill:none;stroke:#babdb6;stroke-width:2;stroke-linecap:butt;stroke-linejoin:miter;stroke-opacity:1"
     d="m 25,29 8,0"
     id="path3116"
     inkscape:connector-curvature="0" />
  <path
     style="fill:none;stroke:#babdb6;stroke-width:2;stroke-linecap:butt;stroke-linejoin:miter;stroke-opacity:1"
     d="m 35,25 8,0"
     id="path3118"
     inkscape:connector-curvature="0" />
  <path
     inkscape:connector-curvature="0"
     id="path3120"
     d="m 35,29 8,0"
     style="fill:none;stroke:#babdb6;stroke-width:2;stroke-linecap:butt;stroke-linejoin:miter;stroke-opacity:1" />
  <path
     style="fill:#729fcf;stroke:none"
     d="m 13.5,35.5 -5,5 5,5 0,-2 9,0 5.5,0 8.5,0 0,2 5,-5 -5,-5 0,2 -8.5,0 -5.5,0 -9,0 z"
     id="path3122"
     inkscape:connector-curvature="0"
     sodipodi:nodetypes="ccccccccccccccc" />
  <path
     style="opacity:0.25;fill:#eeeeec;stroke:none"
     d="M 40.5,39.5 C 35.789219,40.271099 31.665985,41.456574 26.248699,41.118718 22.878084,40.908506 16.922939,40.20981 9.3125,40.8125 L 14,45.5 l 0,-2 8.5,0 5.5,0 8.5,0 0,2 5,-5 z"
     id="path3127"
     inkscape:connector-curvature="0"
     sodipodi:nodetypes="csccccccccc" />
  <path
     inkscape:connector-curvature="0"
     id="path3132"
     d="m 13.5,35.5 -5,5 5,5 0,-2 9,0 5.5,0 8.5,0 0,2 5,-5 -5,-5 0,2 -8.5,0 -5.5,0 -9,0 z"
     style="fill:none;stroke:#204a87;stroke-width:1px;stroke-linecap:butt;stroke-linejoin:miter;stroke-opacity:1"
     sodipodi:nodetypes="ccccccccccccccc" />
  <path
     style="opacity:0.5;fill:none;stroke:#eeeeec;stroke-width:1px;stroke-linecap:butt;stroke-linejoin:miter;stroke-opacity:1"
     d="M 12.5,37.9375 9.9375,40.5 12.5,43.03125 12.5,42.5 l 10.25,0 1.25,0 13.5,0 0,0.53125 L 40.0625,40.5 37.5,37.9375 l 0,0.5625 -13.5,0 -1.25,0 -10.25,0 z"
     id="path3138"
     inkscape:connector-curvature="0"
     sodipodi:nodetypes="ccccccccccccccc" />
</svg>
