<?xml version="1.0" encoding="UTF-8" standalone="no"?>
<!-- Created with Inkscape (http://www.inkscape.org/) -->

<svg
   xmlns:dc="http://purl.org/dc/elements/1.1/"
   xmlns:cc="http://creativecommons.org/ns#"
   xmlns:rdf="http://www.w3.org/1999/02/22-rdf-syntax-ns#"
   xmlns:svg="http://www.w3.org/2000/svg"
   xmlns="http://www.w3.org/2000/svg"
   xmlns:xlink="http://www.w3.org/1999/xlink"
   xmlns:sodipodi="http://sodipodi.sourceforge.net/DTD/sodipodi-0.dtd"
   xmlns:inkscape="http://www.inkscape.org/namespaces/inkscape"
   id="svg2"
   version="1.1"
   inkscape:version="0.48.3.1 r9886"
   width="48"
   height="48"
   sodipodi:docname="Atom.svg"
   inkscape:export-filename="/media/john/DATA/Pictures/logos/btvguide/btvguide.png"
   inkscape:export-xdpi="90"
   inkscape:export-ydpi="90">
  <metadata
     id="metadata8">
    <rdf:RDF>
      <cc:Work
         rdf:about="">
        <dc:format>image/svg+xml</dc:format>
        <dc:type
           rdf:resource="http://purl.org/dc/dcmitype/StillImage" />
        <dc:title></dc:title>
      </cc:Work>
    </rdf:RDF>
  </metadata>
  <defs
     id="defs6">
    <linearGradient
       id="linearGradient4223">
      <stop
         style="stop-color:#5789ca;stop-opacity:1;"
         offset="0"
         id="stop4225" />
      <stop
         style="stop-color:#2c568c;stop-opacity:1;"
         offset="1"
         id="stop4227" />
    </linearGradient>
    <linearGradient
       id="linearGradient4024">
      <stop
         style="stop-color:#ff2d2d;stop-opacity:1;"
         offset="0"
         id="stop4026" />
      <stop
         style="stop-color:#cc0000;stop-opacity:1;"
         offset="1"
         id="stop4028" />
    </linearGradient>
    <radialGradient
       inkscape:collect="always"
       xlink:href="#linearGradient4024"
       id="radialGradient4058"
       gradientUnits="userSpaceOnUse"
       gradientTransform="matrix(1.403466,0,2.8846557e-6,1,-10.129209,9.9881873e-8)"
       cx="25.10532"
       cy="22.889477"
       fx="25.10532"
       fy="22.889477"
       r="7" />
    <linearGradient
       id="linearGradient4565">
      <stop
         style="stop-color:#3a3a3a;stop-opacity:1;"
         offset="0"
         id="stop4567" />
      <stop
         style="stop-color:#000000;stop-opacity:0;"
         offset="1"
         id="stop4569" />
    </linearGradient>
    <radialGradient
       r="19.714285"
       fy="38.57143"
       fx="24.714285"
       cy="38.57143"
       cx="24.714285"
       gradientTransform="matrix(1,0,0,0.333333,0,25.71429)"
       gradientUnits="userSpaceOnUse"
       id="radialGradient3291"
       xlink:href="#linearGradient4565"
       inkscape:collect="always" />
    <radialGradient
       inkscape:collect="always"
       xlink:href="#linearGradient4223"
       id="radialGradient4229"
       cx="12.25"
       cy="4.309896"
       fx="12.25"
       fy="4.309896"
       r="22"
       gradientTransform="matrix(1.1875,1.4431818,-0.69611024,0.57277851,0.70328751,-13.897593)"
       gradientUnits="userSpaceOnUse" />
    <radialGradient
       inkscape:collect="always"
       xlink:href="#linearGradient4223"
       id="radialGradient4231"
       gradientUnits="userSpaceOnUse"
       gradientTransform="matrix(0.90077923,1.1136741,-1.3424758,1.0858278,7.9283102,-10.913645)"
       cx="15.652414"
       cy="5.0486422"
       fx="15.652414"
       fy="5.0486422"
       r="22" />
  </defs>
  <sodipodi:namedview
     pagecolor="#ffffff"
     bordercolor="#666666"
     borderopacity="1"
     objecttolerance="10"
     gridtolerance="10"
     guidetolerance="10"
     inkscape:pageopacity="0"
     inkscape:pageshadow="2"
     inkscape:window-width="1450"
     inkscape:window-height="876"
     id="namedview4"
     showgrid="false"
     inkscape:zoom="16"
     inkscape:cx="32.185526"
     inkscape:cy="4.0181069"
     inkscape:window-x="150"
     inkscape:window-y="0"
     inkscape:window-maximized="1"
     inkscape:current-layer="svg2"
     showguides="true"
     inkscape:guide-bbox="true">
    <inkscape:grid
       type="xygrid"
       id="grid3035"
       empspacing="5"
       visible="true"
       enabled="true"
       snapvisiblegridlinesonly="true" />
  </sodipodi:namedview>
  <path
     transform="matrix(1,0,0,0.81453805,-0.7142849,11.467222)"
     sodipodi:type="arc"
     style="opacity:0.53164559;color:#000000;fill:url(#radialGradient3291);fill-opacity:1;fill-rule:evenodd;stroke:none;stroke-width:0.40487173;marker:none;visibility:visible;display:inline;overflow:visible"
     id="path4563"
     sodipodi:cx="24.714285"
     sodipodi:cy="38.57143"
     sodipodi:rx="19.714285"
     sodipodi:ry="6.5714288"
     d="m 44.42857,38.57143 a 19.714285,6.5714288 0 1 1 -39.42857,0 19.714285,6.5714288 0 1 1 39.42857,0 z" />
  <text
     xml:space="preserve"
     style="font-size:40px;font-style:normal;font-weight:normal;line-height:125%;letter-spacing:0px;word-spacing:0px;fill:#000000;fill-opacity:1;stroke:none;font-family:Sans"
     x="1.0606601"
     y="35.095303"
     id="text3006"
     sodipodi:linespacing="125%"><tspan
       sodipodi:role="line"
       id="tspan3008"
       x="1.0606601"
       y="35.095303"
       style="font-size:40px;font-style:normal;font-variant:normal;font-weight:bold;font-stretch:normal;text-align:start;line-height:125%;writing-mode:lr-tb;text-anchor:start;font-family:TeXGyreCursor;-inkscape-font-specification:TeXGyreCursor Bold" /></text>
  <path
     transform="translate(-2.5,-0.5)"
     d="m 33,24.5 a 6.5,6.5 0 1 1 -13,0 6.5,6.5 0 1 1 13,0 z"
     sodipodi:ry="6.5"
     sodipodi:rx="6.5"
     sodipodi:cy="24.5"
     sodipodi:cx="26.5"
     id="path4018"
     style="font-size:40px;font-style:italic;font-weight:normal;line-height:125%;letter-spacing:0px;word-spacing:0px;fill:url(#radialGradient4058);fill-opacity:1;stroke:#a40000;stroke-width:1;stroke-linecap:round;stroke-miterlimit:4;stroke-opacity:1;stroke-dasharray:none;font-family:Sans;-inkscape-font-specification:Sans Italic"
     sodipodi:type="arc" />
  <path
     sodipodi:type="arc"
     style="font-size:40px;font-style:italic;font-weight:normal;line-height:125%;letter-spacing:0px;word-spacing:0px;opacity:0.5;fill:none;stroke:#eeeeec;stroke-width:1.18181813;stroke-linecap:round;stroke-miterlimit:4;stroke-opacity:1;stroke-dasharray:none;font-family:Sans;-inkscape-font-specification:Sans Italic"
     id="path4022"
     sodipodi:cx="26.5"
     sodipodi:cy="24.5"
     sodipodi:rx="6.5"
     sodipodi:ry="6.5"
     d="m 33,24.5 a 6.5,6.5 0 1 1 -13,0 6.5,6.5 0 1 1 13,0 z"
     transform="matrix(0.84615385,0,0,0.84615385,1.576923,3.2692307)" />
  <g
     id="g4218"
     style="fill-opacity:1;fill:url(#radialGradient4229)">
    <path
       id="path4066"
       d="M 23.96875 13 C 17.956442 13 12.515191 14.227524 8.53125 16.1875 C 4.547309 18.147477 1.96875 20.889945 1.96875 24 C 1.96875 27.110056 4.547309 29.852523 8.53125 31.8125 C 12.515191 33.772477 17.956442 35 23.96875 35 C 29.981059 35 35.422309 33.772477 39.40625 31.8125 C 43.390191 29.852523 45.96875 27.110056 45.96875 24 C 45.96875 20.889945 43.390191 18.147477 39.40625 16.1875 C 35.422309 14.227524 29.981059 13 23.96875 13 z M 24.03125 13.34375 C 29.334897 13.34375 34.095394 14.508515 37.53125 16.375 C 40.967105 18.241485 43.03125 20.771171 43.03125 23.5 C 43.03125 26.228829 40.967105 28.758515 37.53125 30.625 C 34.095394 32.491485 29.334897 33.65625 24.03125 33.65625 C 18.727603 33.65625 13.935856 32.491485 10.5 30.625 C 7.064146 28.758515 5.03125 26.228829 5.03125 23.5 C 5.03125 20.771171 7.064146 18.241485 10.5 16.375 C 13.935856 14.508515 18.727603 13.34375 24.03125 13.34375 z "
       style="font-size:medium;font-style:normal;font-variant:normal;font-weight:normal;font-stretch:normal;text-indent:0;text-align:start;text-decoration:none;line-height:125%;letter-spacing:0;word-spacing:0;text-transform:none;direction:ltr;block-progression:tb;writing-mode:lr-tb;text-anchor:start;baseline-shift:baseline;color:#000000;fill:url(#radialGradient4229);fill-opacity:1;stroke:none;stroke-width:1.03159391999999994;marker:none;visibility:visible;display:inline;overflow:visible;enable-background:accumulate;font-family:Sans;-inkscape-font-specification:Sans Italic" />
    <path
       inkscape:connector-curvature="0"
       style="font-size:medium;font-style:normal;font-variant:normal;font-weight:normal;font-stretch:normal;text-indent:0;text-align:start;text-decoration:none;line-height:125%;letter-spacing:0;word-spacing:0;text-transform:none;direction:ltr;block-progression:tb;writing-mode:lr-tb;text-anchor:start;baseline-shift:baseline;color:#000000;fill:url(#radialGradient4229);fill-opacity:1;stroke:none;stroke-width:1.03159391999999994;marker:none;visibility:visible;display:inline;overflow:visible;enable-background:accumulate;font-family:Sans;-inkscape-font-specification:Sans Italic"
       d="M 33.495029,29.499999 C 36.501183,24.293188 38.158742,18.967165 38.453323,14.536982 38.747904,10.1068 37.662136,6.5024687 34.96875,4.9474407 32.275362,3.3924122 28.611037,4.2542768 24.921676,6.7244829 21.232316,9.1946877 17.448624,13.293189 14.442471,18.5 11.436316,23.706812 9.7787569,29.032834 9.4841766,33.463017 c -0.2945808,4.430182 0.7911854,8.034513 3.4845734,9.589541 2.693387,1.555028 6.357713,0.693164 10.047074,-1.777041 3.689359,-2.470206 7.473051,-6.568705 10.479205,-11.775518 z m -0.328946,-0.117748 c -2.651824,4.593094 -6.040788,8.133422 -9.37514,10.175719 -3.33435,2.042295 -6.557195,2.565053 -8.92043,1.200639 -2.363236,-1.364415 -3.521935,-4.416859 -3.420431,-8.32564 0.101504,-3.908781 1.473036,-8.613874 4.12486,-13.206968 2.651823,-4.593092 6.056413,-8.160485 9.390765,-10.202781 3.33435,-2.0422945 6.54157,-2.5379916 8.904806,-1.1735762 2.363235,1.3644141 3.537559,4.3897962 3.436056,8.2985762 -0.101505,3.908781 -1.488663,8.640939 -4.140486,13.234031 z"
       id="path4070" />
    <path
       id="path4072"
       d="m 14.442471,29.499998 c 3.006154,5.206812 6.789846,9.305312 10.479206,11.775518 3.68936,2.470206 7.353686,3.332069 10.047073,1.777042 2.693388,-1.555028 3.779154,-5.159359 3.484573,-9.589542 C 38.158743,29.032834 36.501183,23.70681 33.495029,18.499999 30.488875,13.293187 26.705184,9.1946874 23.015823,6.7244818 19.326463,4.2542762 15.662138,3.3924116 12.96875,4.9474401 10.275363,6.5024676 9.1895959,10.106799 9.4841757,14.536982 9.778758,18.967164 11.436316,24.293187 14.442471,29.499998 z m 0.266446,-0.226001 c -2.651824,-4.593093 -4.023356,-9.298186 -4.124861,-13.206968 -0.101505,-3.908779 1.057196,-6.9612248 3.420431,-8.3256393 2.363236,-1.364415 5.58608,-0.841655 8.920431,1.2006398 3.334352,2.0422965 6.723316,5.5826245 9.37514,10.1757175 2.651823,4.593093 4.038981,9.325251 4.140485,13.234032 0.101504,3.908779 -1.072819,6.934161 -3.436056,8.298576 -2.363235,1.364415 -5.570455,0.868718 -8.904806,-1.173576 C 20.76533,37.434483 17.36074,33.86709 14.708917,29.273997 z"
       style="font-size:medium;font-style:normal;font-variant:normal;font-weight:normal;font-stretch:normal;text-indent:0;text-align:start;text-decoration:none;line-height:125%;letter-spacing:0;word-spacing:0;text-transform:none;direction:ltr;block-progression:tb;writing-mode:lr-tb;text-anchor:start;baseline-shift:baseline;color:#000000;fill:url(#radialGradient4231);fill-opacity:1;stroke:none;stroke-width:1.03159391999999994;marker:none;visibility:visible;display:inline;overflow:visible;enable-background:accumulate;font-family:Sans;-inkscape-font-specification:Sans Italic"
       inkscape:connector-curvature="0" />
  </g>
</svg>
