<?xml version="1.0" encoding="UTF-8" standalone="no"?>
<!-- Created with Inkscape (http://www.inkscape.org/) -->

<svg
   xmlns:dc="http://purl.org/dc/elements/1.1/"
   xmlns:cc="http://creativecommons.org/ns#"
   xmlns:rdf="http://www.w3.org/1999/02/22-rdf-syntax-ns#"
   xmlns:svg="http://www.w3.org/2000/svg"
   xmlns="http://www.w3.org/2000/svg"
   xmlns:xlink="http://www.w3.org/1999/xlink"
   version="1.1"
   width="48"
   height="48"
   id="svg2">
  <metadata
     id="metadata8">
    <rdf:RDF>
      <cc:Work
         rdf:about="">
        <dc:format>image/svg+xml</dc:format>
        <dc:type
           rdf:resource="http://purl.org/dc/dcmitype/StillImage" />
        <dc:title></dc:title>
      </cc:Work>
    </rdf:RDF>
  </metadata>
  <defs
     id="defs6">
    <linearGradient
       id="linearGradient5331">
      <stop
         id="stop5333"
         style="stop-color:#d8dad6;stop-opacity:1"
         offset="0" />
      <stop
         id="stop5335"
         style="stop-color:#babdb6;stop-opacity:1"
         offset="1" />
    </linearGradient>
    <linearGradient
       id="linearGradient5318">
      <stop
         id="stop5320"
         style="stop-color:#66ca08;stop-opacity:1"
         offset="0" />
      <stop
         id="stop5322"
         style="stop-color:#4e9a06;stop-opacity:1"
         offset="1" />
    </linearGradient>
    <linearGradient
       id="linearGradient4223">
      <stop
         id="stop4225"
         style="stop-color:#5789ca;stop-opacity:1"
         offset="0" />
      <stop
         id="stop4227"
         style="stop-color:#2c568c;stop-opacity:1"
         offset="1" />
    </linearGradient>
    <radialGradient
       cx="12.25"
       cy="4.309896"
       r="22"
       fx="12.25"
       fy="4.309896"
       id="radialGradient4229"
       xlink:href="#linearGradient4223"
       gradientUnits="userSpaceOnUse"
       gradientTransform="matrix(1.1875,1.4431818,-0.69611024,0.57277851,0.70328751,-13.897593)" />
    <linearGradient
       x1="7"
       y1="28"
       x2="40"
       y2="38"
       id="linearGradient5324"
       xlink:href="#linearGradient5318"
       gradientUnits="userSpaceOnUse"
       gradientTransform="translate(0,-7)" />
    <linearGradient
       x1="20.373514"
       y1="28.73134"
       x2="26.649086"
       y2="38.233089"
       id="linearGradient5337"
       xlink:href="#linearGradient5331"
       gradientUnits="userSpaceOnUse"
       gradientTransform="translate(0,-7)" />
    <linearGradient
       id="linearGradient4565-4">
      <stop
         id="stop4567-1"
         style="stop-color:#000000;stop-opacity:1"
         offset="0" />
      <stop
         id="stop4569-9"
         style="stop-color:#000000;stop-opacity:0"
         offset="1" />
    </linearGradient>
    <radialGradient
       cx="24.714285"
       cy="38.57143"
       r="19.714285"
       fx="24.714285"
       fy="38.57143"
       id="radialGradient3308"
       xlink:href="#linearGradient4565-4"
       gradientUnits="userSpaceOnUse"
       gradientTransform="matrix(1,0,0,0.333333,0,25.71429)" />
    <radialGradient
       cx="24.714285"
       cy="38.57143"
       r="19.714285"
       fx="24.714285"
       fy="38.57143"
       id="radialGradient5416"
       xlink:href="#linearGradient4565-4"
       gradientUnits="userSpaceOnUse"
       gradientTransform="matrix(1,0,0,0.333333,0,25.71429)" />
    <radialGradient
       cx="24.714285"
       cy="38.57143"
       r="19.714285"
       fx="24.714285"
       fy="38.57143"
       id="radialGradient5420"
       xlink:href="#linearGradient4565-4"
       gradientUnits="userSpaceOnUse"
       gradientTransform="matrix(1,0,0,0.333333,0,25.71429)" />
  </defs>
  <path
     d="m 44.42857,38.57143 a 19.714285,6.5714288 0 1 1 -39.42857,0 19.714285,6.5714288 0 1 1 39.42857,0 z"
     transform="matrix(0.38813403,0,0,0.53396741,26.720045,19.841613)"
     id="path5418"
     style="opacity:0.53164559;color:#000000;fill:url(#radialGradient5420);fill-opacity:1;fill-rule:evenodd;stroke:none;stroke-width:0.40487173;marker:none;visibility:visible;display:inline;overflow:visible" />
  <path
     d="m 44.42857,38.57143 a 19.714285,6.5714288 0 1 1 -39.42857,0 19.714285,6.5714288 0 1 1 39.42857,0 z"
     transform="matrix(0.38813403,0,0,0.53396741,1.8450449,20.466613)"
     id="path5414"
     style="opacity:0.53164559;color:#000000;fill:url(#radialGradient5416);fill-opacity:1;fill-rule:evenodd;stroke:none;stroke-width:0.40487173;marker:none;visibility:visible;display:inline;overflow:visible" />
  <path
     d="m 44.42857,38.57143 a 19.714285,6.5714288 0 1 1 -39.42857,0 19.714285,6.5714288 0 1 1 39.42857,0 z"
     transform="translate(-0.0892849,-8.6964302)"
     id="path4563"
     style="opacity:0.53164559;color:#000000;fill:url(#radialGradient3308);fill-opacity:1;fill-rule:evenodd;stroke:none;stroke-width:0.40487173;marker:none;visibility:visible;display:inline;overflow:visible" />
  <path
     d="m 11.359835,36.468019 c -1.845725,0 -3.430649,0.566803 -4.296875,1.4 l -0.703125,0.479507 0,0.920493 c 0,1.546397 2.238576,2.8 5,2.8 2.761424,0 5,-1.253603 5,-2.8 l 0,-1.044236 -0.703125,-0.355764 c -0.866226,-0.833197 -2.45115,-1.4 -4.296875,-1.4 z"
     id="path5375"
     style="fill:#907500;fill-opacity:1;stroke:#907500;stroke-width:0.99999994;stroke-opacity:1" />
  <path
     d="m 11.359835,34.968019 c -1.845725,0 -3.430649,0.566803 -4.296875,1.4 l -0.703125,0.479507 0,0.920493 c 0,1.546397 2.238576,2.8 5,2.8 2.761424,0 5,-1.253603 5,-2.8 l 0,-1.044236 -0.703125,-0.355764 c -0.866226,-0.833197 -2.45115,-1.4 -4.296875,-1.4 z"
     id="path5377"
     style="fill:#edd400;fill-opacity:1;stroke:#edd400;stroke-width:0.99999994;stroke-opacity:1" />
  <path
     d="m 11.359835,33.468019 c -1.845725,0 -3.430649,0.566803 -4.296875,1.4 l -0.703125,0.479507 0,0.920493 c 0,1.546397 2.238576,2.8 5,2.8 2.761424,0 5,-1.253603 5,-2.8 l 0,-1.044236 -0.703125,-0.355764 c -0.866226,-0.833197 -2.45115,-1.4 -4.296875,-1.4 z"
     id="path5373"
     style="fill:#907500;fill-opacity:1;stroke:#907500;stroke-width:0.99999994;stroke-opacity:1" />
  <path
     d="m 11.359835,31.968019 c -1.845725,0 -3.430649,0.566803 -4.296875,1.4 l -0.703125,0.479507 0,0.920493 c 0,1.546397 2.238576,2.8 5,2.8 2.761424,0 5,-1.253603 5,-2.8 l 0,-1.044236 -0.703125,-0.355764 c -0.866226,-0.833197 -2.45115,-1.4 -4.296875,-1.4 z"
     id="path5371"
     style="fill:#edd400;fill-opacity:1;stroke:#edd400;stroke-width:0.99999994;stroke-opacity:1" />
  <path
     d="m 36,35.9 c -1.845725,0 -3.430649,0.566803 -4.296875,1.4 L 31,37.779507 31,38.7 c 0,1.546397 2.238576,2.8 5,2.8 2.761424,0 5,-1.253603 5,-2.8 L 41,37.655764 40.296875,37.3 C 39.430649,36.466803 37.845725,35.9 36,35.9 z"
     id="path5345"
     style="fill:#907500;fill-opacity:1;stroke:#907500;stroke-width:0.99999994;stroke-opacity:1" />
  <path
     d="m 5,20.5 0,12 38,0 0,-12"
     id="path5287"
     style="fill:url(#linearGradient5324);fill-opacity:1;stroke:#36620b;stroke-width:1px;stroke-linecap:butt;stroke-linejoin:miter;stroke-opacity:1" />
  <text
     x="1.0606601"
     y="35.095303"
     id="text3006"
     xml:space="preserve"
     style="font-size:40px;font-style:normal;font-weight:normal;line-height:125%;letter-spacing:0px;word-spacing:0px;fill:#000000;fill-opacity:1;stroke:none;font-family:Sans"><tspan
       x="1.0606601"
       y="35.095303"
       id="tspan3008"
       style="font-size:40px;font-style:normal;font-variant:normal;font-weight:bold;font-stretch:normal;text-align:start;line-height:125%;writing-mode:lr-tb;text-anchor:start;font-family:TeXGyreCursor;-inkscape-font-specification:TeXGyreCursor Bold" /></text>
  <path
     d="m 5,20.5 38,0 -7,-7 -24,0 -7,7 z"
     id="path5285"
     style="fill:#4e9a06;stroke:#36620b;stroke-width:1px;stroke-linecap:butt;stroke-linejoin:round;stroke-opacity:1" />
  <path
     d="m 7.4375,19.5 33.184034,0 -5,-5 -23.184034,0 z"
     id="path5308"
     style="opacity:0.25;fill:none;stroke:#eeeeec;stroke-width:1px;stroke-linecap:butt;stroke-linejoin:miter;stroke-opacity:1" />
  <path
     d="M 5.0242717,22.5 42.5,22.5"
     id="path5289"
     style="fill:none;stroke:#36620b;stroke-width:1px;stroke-linecap:butt;stroke-linejoin:miter;stroke-opacity:1" />
  <path
     d="M 5.0242717,24.5 42.5,24.5"
     id="path5291"
     style="fill:none;stroke:#36620b;stroke-width:1px;stroke-linecap:butt;stroke-linejoin:miter;stroke-opacity:1" />
  <path
     d="M 5.0242717,26.5 42.5,26.5"
     id="path5293"
     style="fill:none;stroke:#36620b;stroke-width:1px;stroke-linecap:butt;stroke-linejoin:miter;stroke-opacity:1" />
  <path
     d="M 5.0242717,28.5 42.5,28.5"
     id="path5295"
     style="fill:none;stroke:#36620b;stroke-width:1px;stroke-linecap:butt;stroke-linejoin:miter;stroke-opacity:1" />
  <path
     d="M 5.0242717,30.5 42.5,30.5"
     id="path5297"
     style="fill:none;stroke:#36620b;stroke-width:1px;stroke-linecap:butt;stroke-linejoin:miter;stroke-opacity:1" />
  <path
     d="m 22,13.5 -2.5,7 0,12 4.5,0 4.5,0 0,-12 -2.5,-7 -2,0 z"
     id="path5301"
     style="fill:url(#linearGradient5337);fill-opacity:1;stroke:#555753;stroke-width:1px;stroke-linecap:butt;stroke-linejoin:miter;stroke-opacity:1" />
  <path
     d="M 28.375,20.125 26,13.5 l -2,0 -2,0 -2.375,6.625"
     id="path5326"
     style="fill:#d3d7cf;stroke:#555753;stroke-width:1px;stroke-linecap:butt;stroke-linejoin:miter;stroke-opacity:1" />
  <path
     d="m 19.5,20.5 9,0"
     id="path5306"
     style="fill:none;stroke:#555753;stroke-width:1px;stroke-linecap:butt;stroke-linejoin:miter;stroke-opacity:1" />
  <path
     d="m 18,24 a 2.5,1 0 1 1 -5,0 2.5,1 0 1 1 5,0 z"
     transform="translate(0,-7)"
     id="path5339"
     style="opacity:0.25;fill:#1c3702;fill-opacity:1;stroke:none" />
  <path
     d="m 18,24 a 2.5,1 0 1 1 -5,0 2.5,1 0 1 1 5,0 z"
     transform="translate(16.96875,-7)"
     id="path5341"
     style="opacity:0.25;fill:#1c3702;fill-opacity:1;stroke:none" />
  <path
     d="m 36,42 a 4,2 0 1 1 -8,0 4,2 0 1 1 8,0 z"
     transform="matrix(1.25,0,0,1.4,-4,-21.5)"
     id="path5343"
     style="fill:#edd400;fill-opacity:1;stroke:#c4a000;stroke-width:0.75592893" />
  <path
     d="m 36.212132,42 a 4.212132,2.5050762 0 1 1 -8.424264,0 4.212132,2.5050762 0 1 1 8.424264,0 z"
     transform="matrix(0.9375,0,0,0.7,6,7.9)"
     id="path5353"
     style="opacity:0.25;fill:none;stroke:#eeeeec;stroke-width:1.23442674" />
  <path
     d="m 33.742252,37.360039 c 0.132583,0 2.187612,-0.596622 2.187612,-0.596622"
     id="path5357"
     style="fill:#c4a000;stroke:#c4a000;stroke-width:1px;stroke-linecap:butt;stroke-linejoin:miter;stroke-opacity:1" />
  <path
     d="m 36.018252,37.713592 c 0.132583,0 2.187612,-0.596622 2.187612,-0.596622"
     id="path5359"
     style="fill:#c4a000;stroke:#c4a000;stroke-width:1px;stroke-linecap:butt;stroke-linejoin:miter;stroke-opacity:1" />
  <path
     d="m 11.359835,30.468019 c -1.845725,0 -3.430649,0.566803 -4.296875,1.4 l -0.703125,0.479507 0,0.920493 c 0,1.546397 2.238576,2.8 5,2.8 2.761424,0 5,-1.253603 5,-2.8 l 0,-1.044236 -0.703125,-0.355764 c -0.866226,-0.833197 -2.45115,-1.4 -4.296875,-1.4 z"
     id="path5361"
     style="fill:#907500;fill-opacity:1;stroke:#907500;stroke-width:0.99999994;stroke-opacity:1" />
  <path
     d="m 36,42 a 4,2 0 1 1 -8,0 4,2 0 1 1 8,0 z"
     transform="matrix(1.25,0,0,1.4,-28.640165,-26.931981)"
     id="path5363"
     style="fill:#edd400;fill-opacity:1;stroke:#c4a000;stroke-width:0.75592893" />
  <path
     d="m 36.212132,42 a 4.212132,2.5050762 0 1 1 -8.424264,0 4.212132,2.5050762 0 1 1 8.424264,0 z"
     transform="matrix(0.9375,0,0,0.7,-18.640165,2.4680195)"
     id="path5365"
     style="opacity:0.25;fill:none;stroke:#eeeeec;stroke-width:1.23442674" />
  <path
     d="m 9.102087,31.928058 c 0.132583,0 2.187612,-0.596622 2.187612,-0.596622"
     id="path5367"
     style="fill:#c4a000;stroke:#c4a000;stroke-width:1px;stroke-linecap:butt;stroke-linejoin:miter;stroke-opacity:1" />
  <path
     d="m 11.378087,32.281611 c 0.132583,0 2.187612,-0.596622 2.187612,-0.596622"
     id="path5369"
     style="fill:#c4a000;stroke:#c4a000;stroke-width:1px;stroke-linecap:butt;stroke-linejoin:miter;stroke-opacity:1" />
  <path
     d="m 11.359835,36.468019 c -1.845725,0 -3.430649,0.566803 -4.296875,1.4 l -0.703125,0.479507 0,0.920493 c 0,1.546397 2.238576,2.8 5,2.8 2.761424,0 5,-1.253603 5,-2.8 l 0,-1.044236 -0.703125,-0.355764 c -0.866226,-0.833197 -2.45115,-1.4 -4.296875,-1.4 z"
     id="path5379"
     style="fill:#907500;fill-opacity:1;stroke:#907500;stroke-width:0.99999994;stroke-opacity:1" />
  <path
     d="m 11.359835,34.968019 c -1.845725,0 -3.430649,0.566803 -4.296875,1.4 l -0.703125,0.479507 0,0.920493 c 0,1.546397 2.238576,2.8 5,2.8 2.761424,0 5,-1.253603 5,-2.8 l 0,-1.044236 -0.703125,-0.355764 c -0.866226,-0.833197 -2.45115,-1.4 -4.296875,-1.4 z"
     id="path5381"
     style="fill:#edd400;fill-opacity:1;stroke:#edd400;stroke-width:0.99999994;stroke-opacity:1" />
  <path
     d="m 11.359835,33.468019 c -1.845725,0 -3.430649,0.566803 -4.296875,1.4 l -0.703125,0.479507 0,0.920493 c 0,1.546397 2.238576,2.8 5,2.8 2.761424,0 5,-1.253603 5,-2.8 l 0,-1.044236 -0.703125,-0.355764 c -0.866226,-0.833197 -2.45115,-1.4 -4.296875,-1.4 z"
     id="path5383"
     style="fill:#907500;fill-opacity:1;stroke:#907500;stroke-width:0.99999994;stroke-opacity:1" />
  <path
     d="m 11.359835,31.968019 c -1.845725,0 -3.430649,0.566803 -4.296875,1.4 l -0.703125,0.479507 0,0.920493 c 0,1.546397 2.238576,2.8 5,2.8 2.761424,0 5,-1.253603 5,-2.8 l 0,-1.044236 -0.703125,-0.355764 c -0.866226,-0.833197 -2.45115,-1.4 -4.296875,-1.4 z"
     id="path5385"
     style="fill:#edd400;fill-opacity:1;stroke:#edd400;stroke-width:0.99999994;stroke-opacity:1" />
  <path
     d="m 11.359835,30.468019 c -1.845725,0 -3.430649,0.566803 -4.296875,1.4 l -0.703125,0.479507 0,0.920493 c 0,1.546397 2.238576,2.8 5,2.8 2.761424,0 5,-1.253603 5,-2.8 l 0,-1.044236 -0.703125,-0.355764 c -0.866226,-0.833197 -2.45115,-1.4 -4.296875,-1.4 z"
     id="path5387"
     style="fill:#907500;fill-opacity:1;stroke:#907500;stroke-width:0.99999994;stroke-opacity:1" />
  <path
     d="m 36,42 a 4,2 0 1 1 -8,0 4,2 0 1 1 8,0 z"
     transform="matrix(1.25,0,0,1.4,-28.640165,-26.931981)"
     id="path5389"
     style="fill:#edd400;fill-opacity:1;stroke:#c4a000;stroke-width:0.75592893" />
  <path
     d="m 36.212132,42 a 4.212132,2.5050762 0 1 1 -8.424264,0 4.212132,2.5050762 0 1 1 8.424264,0 z"
     transform="matrix(0.9375,0,0,0.7,-18.640165,2.4680195)"
     id="path5391"
     style="opacity:0.25;fill:none;stroke:#eeeeec;stroke-width:1.23442674" />
  <path
     d="m 9.102087,31.928058 c 0.132583,0 2.187612,-0.596622 2.187612,-0.596622"
     id="path5393"
     style="fill:#c4a000;stroke:#c4a000;stroke-width:1px;stroke-linecap:butt;stroke-linejoin:miter;stroke-opacity:1" />
  <path
     d="m 11.378087,32.281611 c 0.132583,0 2.187612,-0.596622 2.187612,-0.596622"
     id="path5395"
     style="fill:#c4a000;stroke:#c4a000;stroke-width:1px;stroke-linecap:butt;stroke-linejoin:miter;stroke-opacity:1" />
  <g
     id="text5422"
     style="font-size:11.89929485px;font-style:normal;font-weight:normal;line-height:125%;letter-spacing:0px;word-spacing:0px;fill:#555753;fill-opacity:1;stroke:none;font-family:Sans">
    <path
       d="m 27,22.329604 0,1.057457 C 25.874679,22.713498 23.994647,22.772999 23.336992,23.55132 23.112327,23.849585 23,24 23,25.230469 L 23,26 l 3,0 0,1 -3,0 0,3 4,0 0,1 -6,0 0,-1 1,0 0,-3 -1,0 0,-1 1,0 0,-1 c 0,-1.010968 0.04519,-1.653962 0.459651,-2.122659 C 23.68683,21.357946 25.963808,21.680717 27,22.329605"
       id="path5427"
       style="fill:#555753" />
  </g>
</svg>
