<?xml version="1.0" encoding="UTF-8" standalone="no"?>
<svg
   xmlns:dc="http://purl.org/dc/elements/1.1/"
   xmlns:cc="http://creativecommons.org/ns#"
   xmlns:rdf="http://www.w3.org/1999/02/22-rdf-syntax-ns#"
   xmlns:svg="http://www.w3.org/2000/svg"
   xmlns="http://www.w3.org/2000/svg"
   xmlns:xlink="http://www.w3.org/1999/xlink"
   xmlns:sodipodi="http://sodipodi.sourceforge.net/DTD/sodipodi-0.dtd"
   xmlns:inkscape="http://www.inkscape.org/namespaces/inkscape"
   width="400"
   height="110"
   id="svg2"
   version="1.1"
   inkscape:version="0.48.3.1 r9886"
   sodipodi:docname="5-band-resistor.svg">
  <defs
     id="defs4">
    <linearGradient
       id="linearGradient3784">
      <stop
         style="stop-color:#e9eae7;stop-opacity:1;"
         offset="0"
         id="stop3786" />
      <stop
         style="stop-color:#babdb6;stop-opacity:1"
         offset="1"
         id="stop3788" />
    </linearGradient>
    <linearGradient
       inkscape:collect="always"
       xlink:href="#linearGradient3784"
       id="linearGradient3790"
       x1="200"
       y1="947.36218"
       x2="200"
       y2="957.36218"
       gradientUnits="userSpaceOnUse"
       gradientTransform="translate(0,45)" />
  </defs>
  <metadata
     id="metadata7">
    <rdf:RDF>
      <cc:Work
         rdf:about="">
        <dc:format>image/svg+xml</dc:format>
        <dc:type
           rdf:resource="http://purl.org/dc/dcmitype/StillImage" />
        <dc:title></dc:title>
      </cc:Work>
    </rdf:RDF>
  </metadata>
  <g
     inkscape:label="Layer 1"
     inkscape:groupmode="layer"
     id="layer1"
     transform="translate(0,-942.36218)">
    <path
       id="body"
       style="fill:#e9b96e;stroke:none;stroke-width:3;stroke-linecap:butt;stroke-linejoin:miter;stroke-opacity:1"
       d="m 75,987.36218 c 0,-20 15,-40 50,-40 35,0 30,10 75,10 45,0 40,-10 75,-10 35,0 50,20 50,40 0,20.00002 0,10 0,10 0,0 0,-10 0,10.00002 0,20 -15,40 -50,40 -35,0 -30,-10 -75,-10 -45,0 -40,10 -75,10 -35,0 -50,-20 -50,-40 0,-20.00002 0,-10.00002 0,-10.00002 0,0 0,10.00002 0,-10 z"
       sodipodi:nodetypes="sscsscsscsscs" />
    <path
       id="leads"
       style="fill:url(#linearGradient3790);fill-opacity:1;stroke:#000000;stroke-width:2;stroke-linecap:round;stroke-miterlimit:4;stroke-opacity:1"
       d="m 400,1002.3622 -75,0 0,-10.00002 75,0 m -400,0 75,0 0,10.00002 -75,0"
       sodipodi:nodetypes="cccccccc" />
    <path
       style="fill-opacity:1;stroke:#000000;stroke-width:2;stroke-linecap:round;stroke-miterlimit:4;stroke-opacity:1;stroke-dasharray:none"
       d="M 125 5 C 121.45738 5 118.138 5.2046886 115 5.59375 L 115 104.40625 C 118.138 104.79531 121.45738 105 125 105 C 128.76179 105 132.05062 104.86246 135 104.65625 L 135 5.34375 C 132.05062 5.1375443 128.76179 5 125 5 z "
       transform="translate(0,942.36218)"
       id="band1"
       class="resistor-band brown"  />
    <path
       style="fill-opacity:1;stroke:#000000;stroke-width:2;stroke-linecap:round;stroke-miterlimit:4;stroke-opacity:1;stroke-dasharray:none"
       d="M 150 7.59375 L 150 102.40625 C 156.55816 100.81491 161.87024 98.77668 170 97.25 L 170 12.75 C 161.87024 11.22332 156.55816 9.1850899 150 7.59375 z "
       transform="translate(0,942.36218)"
       id="band2"
       class="resistor-band black"  />
    <path
       style="fill-opacity:1;stroke:#000000;stroke-width:2;stroke-linecap:round;stroke-miterlimit:4;stroke-opacity:1;stroke-dasharray:none"
       d="M 185 14.53125 L 185 95.46875 C 189.30744 95.183518 194.24549 95 200 95 C 201.75212 95 203.39417 95.03336 205 95.0625 L 205 14.9375 C 203.39417 14.96664 201.75212 15 200 15 C 194.24549 15 189.30744 14.816482 185 14.53125 z "
       transform="translate(0,942.36218)"
       id="band3"
       class="resistor-band black"  />
    <path
       style="fill-opacity:1;stroke:#000000;stroke-width:2;stroke-linecap:round;stroke-miterlimit:4;stroke-opacity:1;stroke-dasharray:none"
       d="M 240 10.34375 C 234.73306 11.821766 228.84961 13.248117 220 14.125 L 220 95.875 C 228.84961 96.751883 234.73306 98.178234 240 99.65625 L 240 10.34375 z "
       transform="translate(0,942.36218)"
       id="band4"
       class="resistor-band brown"  />
    <path
       style="fill-opacity:1;stroke:#000000;stroke-width:2;stroke-linecap:round;stroke-miterlimit:4;stroke-opacity:1;stroke-dasharray:none"
       d="m 275,947.36218 0,100.00002 c 7.58996,0 14.24011,-0.9479 20,-2.625 l 0,-94.75002 c -5.75989,-1.6771 -12.41004,-2.625 -20,-2.625 z"
       id="band5"
       class="resistor-band grey" />
    <path
       sodipodi:nodetypes="sscsscsscsscs"
       d="m 75,987.36218 c 0,-20 15,-40 50,-40 35,0 30,10 75,10 45,0 40,-10 75,-10 35,0 50,20 50,40 0,20.00002 0,10 0,10 0,0 0,-10 0,10.00002 0,20 -15,40 -50,40 -35,0 -30,-10 -75,-10 -45,0 -40,10 -75,10 -35,0 -50,-20 -50,-40 0,-20.00002 0,-10.00002 0,-10.00002 0,0 0,10.00002 0,-10 z"
       style="fill:none;stroke:#000000;stroke-width:3;stroke-linecap:butt;stroke-linejoin:miter;stroke-opacity:1"
       id="border" />
  </g>
</svg>
