<?xml version="1.0" encoding="UTF-8" standalone="no"?>
<!-- Created with Inkscape (http://www.inkscape.org/) -->

<svg
   xmlns:dc="http://purl.org/dc/elements/1.1/"
   xmlns:cc="http://creativecommons.org/ns#"
   xmlns:rdf="http://www.w3.org/1999/02/22-rdf-syntax-ns#"
   xmlns:svg="http://www.w3.org/2000/svg"
   xmlns="http://www.w3.org/2000/svg"
   xmlns:xlink="http://www.w3.org/1999/xlink"
   version="1.1"
   width="400"
   height="110"
   id="svg2">
  <defs
     id="defs4">
    <linearGradient
       id="linearGradient3784">
      <stop
         id="stop3786"
         style="stop-color:#e9eae7;stop-opacity:1"
         offset="0" />
      <stop
         id="stop3788"
         style="stop-color:#babdb6;stop-opacity:1"
         offset="1" />
    </linearGradient>
    <linearGradient
       x1="200"
       y1="947.36218"
       x2="200"
       y2="957.36218"
       id="linearGradient3790"
       xlink:href="#linearGradient3784"
       gradientUnits="userSpaceOnUse"
       gradientTransform="translate(0,45)" />
  </defs>
  <metadata
     id="metadata7">
    <rdf:RDF>
      <cc:Work
         rdf:about="">
        <dc:format>image/svg+xml</dc:format>
        <dc:type
           rdf:resource="http://purl.org/dc/dcmitype/StillImage" />
        <dc:title></dc:title>
      </cc:Work>
    </rdf:RDF>
  </metadata>
  <g
     transform="translate(0,-942.36218)"
     id="layer1">
    <path
       d="m 75,987.36218 c 0,-20 15,-40 50,-40 35,0 30,10 75,10 45,0 40,-10 75,-10 35,0 50,20 50,40 0,20.00002 0,10 0,10 0,0 0,-10 0,10.00002 0,20 -15,40 -50,40 -35,0 -30,-10 -75,-10 -45,0 -40,10 -75,10 -35,0 -50,-20 -50,-40 0,-20.00002 0,-10.00002 0,-10.00002 0,0 0,10.00002 0,-10 z"
       id="body"
       style="fill:#e9b96e;stroke:none" />
    <path
       d="m 400,1002.3622 -75,0 0,-10.00002 75,0 m -400,0 75,0 0,10.00002 -75,0"
       id="leads"
       style="fill:url(#linearGradient3790);fill-opacity:1;stroke:#000000;stroke-width:2;stroke-linecap:round;stroke-miterlimit:4;stroke-opacity:1" />
    <path
       d="m 125,5 c -7.58996,0 -14.24011,0.9478998 -20,2.625 l 0,94.75 c 5.75989,1.6771 12.41004,2.625 20,2.625 L 125,5 z"
       transform="translate(0,942.36218)"
       id="band1"
       class="resistor-band brown"
       style="fill-opacity:1;stroke:#000000;stroke-width:2;stroke-linecap:round;stroke-miterlimit:4;stroke-opacity:1;stroke-dasharray:none" />
    <path
       d="m 135,5.34375 0,99.3125 c 8.7943,-0.61485 14.47284,-2.02463 20,-3.59375 l 0,-92.125 C 149.47284,7.3683837 143.7943,5.9586024 135,5.34375 z"
       transform="translate(0,942.36218)"
       id="band2"
       class="resistor-band black"
       style="fill-opacity:1;stroke:#000000;stroke-width:2;stroke-linecap:round;stroke-miterlimit:4;stroke-opacity:1;stroke-dasharray:none" />
    <path
       d="m 165,11.65625 0,86.6875 c 5.13149,-1.232546 11.25404,-2.295855 20,-2.875 l 0,-80.9375 c -8.74596,-0.579145 -14.86851,-1.642454 -20,-2.875 z"
       transform="translate(0,942.36218)"
       id="band3"
       class="resistor-band black"
       style="fill-opacity:1;stroke:#000000;stroke-width:2;stroke-linecap:round;stroke-miterlimit:4;stroke-opacity:1;stroke-dasharray:none" />
    <path
       d="M 215,14.53125 C 210.69256,14.816482 205.75451,15 200,15 c -1.75212,0 -3.39417,-0.03336 -5,-0.0625 l 0,80.125 C 196.60583,95.03336 198.24788,95 200,95 c 5.75451,0 10.69256,0.183518 15,0.46875 l 0,-80.9375 z"
       transform="translate(0,942.36218)"
       id="band4"
       class="resistor-band brown"
       style="fill-opacity:1;stroke:#000000;stroke-width:2;stroke-linecap:round;stroke-miterlimit:4;stroke-opacity:1;stroke-dasharray:none" />
    <path
       d="m 265,5.34375 c -8.7943,0.6148524 -14.47284,2.0246337 -20,3.59375 l 0,92.125 c 5.52716,1.56912 11.2057,2.9789 20,3.59375 l 0,-99.3125 z"
       transform="translate(0,942.36218)"
       id="band5"
       class="resistor-band grey"
       style="fill-opacity:1;stroke:#000000;stroke-width:2;stroke-linecap:round;stroke-miterlimit:4;stroke-opacity:1;stroke-dasharray:none" />
    <path
       d="m 275,5 0,100 c 7.58996,0 14.24011,-0.9479 20,-2.625 l 0,-94.75 C 289.24011,5.9478998 282.58996,5 275,5 z"
       transform="translate(0,942.36218)"
       id="band6"
       class="resistor-band violet"
       style="fill-opacity:1;stroke:#000000;stroke-width:2;stroke-linecap:round;stroke-miterlimit:4;stroke-opacity:1;stroke-dasharray:none" />
    <path
       d="m 75,987.36218 c 0,-20 15,-40 50,-40 35,0 30,10 75,10 45,0 40,-10 75,-10 35,0 50,20 50,40 0,20.00002 0,10 0,10 0,0 0,-10 0,10.00002 0,20 -15,40 -50,40 -35,0 -30,-10 -75,-10 -45,0 -40,10 -75,10 -35,0 -50,-20 -50,-40 0,-20.00002 0,-10.00002 0,-10.00002 0,0 0,10.00002 0,-10 z"
       id="border"
       style="fill:none;stroke:#000000;stroke-width:3;stroke-linecap:butt;stroke-linejoin:miter;stroke-opacity:1" />
  </g>
</svg>
