<?xml version="1.0" encoding="UTF-8" standalone="no"?>
<!-- Created with Inkscape (http://www.inkscape.org/) -->

<svg
   xmlns:dc="http://purl.org/dc/elements/1.1/"
   xmlns:cc="http://creativecommons.org/ns#"
   xmlns:rdf="http://www.w3.org/1999/02/22-rdf-syntax-ns#"
   xmlns:svg="http://www.w3.org/2000/svg"
   xmlns="http://www.w3.org/2000/svg"
   xmlns:xlink="http://www.w3.org/1999/xlink"
   xmlns:sodipodi="http://sodipodi.sourceforge.net/DTD/sodipodi-0.dtd"
   xmlns:inkscape="http://www.inkscape.org/namespaces/inkscape"
   version="1.1"
   width="215"
   height="110"
   id="svg2"
   inkscape:version="0.48.3.1 r9886"
   sodipodi:docname="SMD-resistor.svg">
  <sodipodi:namedview
     pagecolor="#ffffff"
     bordercolor="#666666"
     borderopacity="1"
     objecttolerance="10"
     gridtolerance="10"
     guidetolerance="10"
     inkscape:pageopacity="0"
     inkscape:pageshadow="2"
     inkscape:window-width="1450"
     inkscape:window-height="875"
     id="namedview19"
     showgrid="true"
     showguides="true"
     inkscape:guide-bbox="true"
     inkscape:zoom="2"
     inkscape:cx="74.13892"
     inkscape:cy="12.514486"
     inkscape:window-x="150"
     inkscape:window-y="0"
     inkscape:window-maximized="1"
     inkscape:current-layer="svg2">
    <inkscape:grid
       type="xygrid"
       id="grid2996"
       empspacing="5"
       visible="true"
       enabled="true"
       snapvisiblegridlinesonly="true"
       spacingx="5px"
       spacingy="5px" />
  </sodipodi:namedview>
  <defs
     id="defs4">
    <linearGradient
       id="linearGradient3784">
      <stop
         id="stop3786"
         style="stop-color:#e9eae7;stop-opacity:1"
         offset="0" />
      <stop
         id="stop3788"
         style="stop-color:#babdb6;stop-opacity:1"
         offset="1" />
    </linearGradient>
    <linearGradient
       x1="200"
       y1="947.36218"
       x2="200"
       y2="957.36218"
       id="linearGradient3790"
       xlink:href="#linearGradient3784"
       gradientUnits="userSpaceOnUse"
       gradientTransform="translate(0,45)" />
    <linearGradient
       inkscape:collect="always"
       xlink:href="#linearGradient3784"
       id="linearGradient3783"
       gradientUnits="userSpaceOnUse"
       x1="100"
       y1="5"
       x2="100"
       y2="105"
       gradientTransform="translate(0.5,0.5)" />
  </defs>
  <metadata
     id="metadata7">
    <rdf:RDF>
      <cc:Work
         rdf:about="">
        <dc:format>image/svg+xml</dc:format>
        <dc:type
           rdf:resource="http://purl.org/dc/dcmitype/StillImage" />
        <dc:title></dc:title>
      </cc:Work>
    </rdf:RDF>
  </metadata>
  <path
     style="fill:url(#linearGradient3783);fill-opacity:1;stroke:#000000;stroke-width:3;stroke-opacity:1"
     d="M 7.25,5.5 C 6.2804505,5.5 5.5,6.3602228 5.5,7.4375 l 0,96.125 c 0,1.07728 0.7804505,1.9375 1.75,1.9375 l 31.5,0 c 0.969549,0 1.75,-0.86022 1.75,-1.9375 l 0,-96.125 C 40.5,6.3602228 39.719549,5.5 38.75,5.5 z m 170,0 c -0.96955,0 -1.75,0.8602228 -1.75,1.9375 l 0,96.125 c 0,1.07728 0.78045,1.9375 1.75,1.9375 l 31.5,0 c 0.96955,0 1.75,-0.86022 1.75,-1.9375 l 0,-96.125 C 210.5,6.3602228 209.71955,5.5 208.75,5.5 z"
     id="leads"
     inkscape:connector-curvature="0"
     sodipodi:nodetypes="ssssssssssssssssss" />
  <path
     style="fill:#2e3436;stroke:#000000;stroke-width:3;stroke-linecap:round;stroke-linejoin:round;stroke-miterlimit:4;stroke-opacity:1"
     d="m 42.250089,10.5 131.499821,0 c 0.96955,0 1.75009,0.867266 1.75009,1.944544 l 0,86.110912 c 0,1.077278 -0.78054,1.944544 -1.75009,1.944544 l -131.499821,0 C 41.28054,100.5 40.5,99.632734 40.5,98.555456 l 0,-86.110912 C 40.5,11.367266 41.28054,10.5 42.250089,10.5 z"
     id="body"
     inkscape:connector-curvature="0"
     sodipodi:nodetypes="sssssssss" />
  <text
     xml:space="preserve"
     style="font-size:55.52691269px;font-style:normal;font-weight:normal;text-align:center;line-height:125%;letter-spacing:0px;word-spacing:0px;text-anchor:middle;fill:#eeeeec;fill-opacity:1;stroke:none;font-family:Sans"
     x="106.88996"
     y="70"
     id="code"
     sodipodi:linespacing="125%"><tspan
       sodipodi:role="line"
       id="tspan3788"
       x="106.88996"
       y="70"
       style="font-size:40px">103</tspan></text>
</svg>
